<svg id="Calque_1" xml:space="preserve" enable-background="new 0 0 100 100" viewBox="0 0 100 100" height="100px" width="100px" y="0px" x="0px" version="1.1" xmlns:xlink="http://www.w3.org/1999/xlink" xmlns="http://www.w3.org/2000/svg"><path d="M90.35,73.61c0,0.979-0.795,2.046-1.773,2.046s-1.637-1.067-1.637-2.046s0.658-2.864,1.637-2.864 S90.35,72.632,90.35,73.61z" fill="#000000"></path><path d="M90.947,40.394l-0.01,0.007C90.828,18.068,72.693,0,50.337,0C28.009,0,9.895,18.023,9.738,40.315 l-0.057-0.044c0,15.172-0.168,27.476,2.71,27.476c1.23,0,1.877-3.529,1.957-4.182c0.057-0.558,0.66-1.42,1.546-1.001 c0.257,0.121,0.476,0.337,0.678,0.587c0.103,0.153,0.208,0.307,0.314,0.459c0.614,1.065,0.928,2.59,1.059,3.447 c0.177,7.84,0.737,13.045,2.496,13.099c1.155,0.033,1.792-2.651,2.144-7.067c0.052-0.373,0.379-2.269,1.582-1.433 c1.41,0.979,1.604,4.279,1.632,5.177c0.178,13.365,0.785,22.324,2.825,22.414c1.887,0.08,2.547-9.103,2.777-22.73 c3.76,1.985,7.866,3.405,12.208,4.129c0.257,6.86,0.88,11.341,2.398,11.299c1.611-0.048,2.435-4.087,2.66-10.606 c0.044,0.003,0.068-18.841,0.068-18.841c0-0.641,0.521-1.16,1.159-1.16c0,0,2.032-0.409,2.182-1.909 c0.15-1.499-2.225-2.498-2.225-2.498c-0.637,0-1.159-0.521-1.159-1.158v-7.233c0-0.637-0.523-1.159-1.162-1.159h-2.092 c-0.636,0-1.586-0.301-2.105-0.671l-6.243-4.416c-0.062-0.043-0.133-0.085-0.208-0.125c-0.123,3.494-0.477,5.783-1.489,5.807 c-1.119,0.027-1.431-3.325-1.518-8.109l-2.527-2.527c-0.002-0.004-0.004-0.009-0.006-0.014c-0.222,8.993-0.271,18.841-1.644,18.832 c-1.584-0.011-1.787-12.708-1.804-22.439c-0.021-0.034-0.053-0.064-0.07-0.1l-3.384-7.01c-0.273-0.573-0.503-1.565-0.503-2.206 l2.593-3.428c0-0.638-3.092-1.577-3.703-1.389l-1.361,0.418c5.892-8.234,15.21-13.845,25.857-14.746v4.82 c0,0.637,0.426,1.46,0.948,1.825l2.173,1.528c0.522,0.366,1.47,0.667,2.11,0.667h1.719c0.639,0,1.16,0.42,1.16,0.937 c0,0.514-0.359,1.313-0.797,1.778l-4.106,0.888c-0.441,0.46,1.351,2.564,1.989,2.567l1.654,0.004 c0.635,0.001,1.156,0.523,1.156,1.163l0.02,2.811c-0.002,0.637,0.951,1.364,1.59,1.364h0.592c0.887,0.068,1.07,1.123,1.07,1.608 c0,0.484-0.795,0.937-1.434,0.937c0,0-3.545,0-5.002,0v3.273c-0.506,0.386-3.272,1.271-3.272,1.909l-0.245,4.565 c0,0.638-0.254,2.162-1.027,2.162c-0.912,0-1.091-1.524-1.091-2.162v-3.202c-0.156-1.409-4.071-2.656-6-0.728 c-3.091,3.091-0.956,6.554-0.457,6.957l4.618,3.704c0.497,0.401,1.427,0.728,2.063,0.729l7.715,0.004 c0.637,0.001,1.623,0.243,2.188,0.539l10.623,5.477c0.564,0.294,1.027,1.059,1.027,1.698l-0.002,0.352 c0,0.639-0.225,1.634-0.498,2.21l-3.76,5.913c-0.236,0.498-0.719,1.17-1.146,1.63c-0.625,2.594,0.033,12.041-1.736,11.788 c-1.504-0.215-0.809-6.178-1.113-9.1c0,0-7.781,7.217-8.41,7.749v7.542c15.307-0.485,28.473-9.424,34.971-22.32 c0.285,5.335,0.857,8.683,2.031,8.645C91.088,67.409,90.947,55.357,90.947,40.394z M64.531,18.331 c-0.176,0.129-0.408,0.244-0.654,0.347c-0.125,3.263-0.76,5.749-1.527,5.749c-0.822,0-1.492-2.845-1.547-6.443 c-0.006-0.043-0.025-0.081-0.025-0.125v-3.772c0-0.638-0.521-1.16-1.16-1.16h-1.68c-0.639,0-1.16-0.522-1.16-1.159V5.721 c5.553,1.024,10.662,3.331,14.99,6.62C71.619,12.838,64.531,18.331,64.531,18.331z M79.986,36.156 c0-5.003,2.637-10.455,2.637-10.455s1.635,3.454,2.453,7c0.814,3.527,1.092,8.455,1.092,8.455S79.986,48.974,79.986,36.156z" fill="#000000"></path></svg>
